<svg viewBox="0 0 1023 140" fill="none" xmlns="http://www.w3.org/2000/svg">
<path d="M72.8286 0.911624C69.3195 2.08372 63.2112 5.33954 55.5432 9.89767C48.1352 14.4558 38.7777 22.4 30.4599 31.386C17.9832 44.2791 4.0769 70.4558 1.21766 90.1209C-0.991746 103.144 -0.0819889 111.479 3.03718 119.163C4.59677 122.94 6.15635 125.935 7.8459 128.149C11.095 132.447 16.1637 136.223 17.7233 137.135C18.5031 137.526 19.1529 137.916 19.6727 138.047L20.4525 136.093L19.0229 135.181C16.6835 132.577 11.095 127.758 8.75566 116.949C7.19607 109.656 6.54625 101.451 9.14555 88.9488C10.5752 82.6977 12.6546 76.0558 15.5139 69.0233C19.4128 59.386 24.0916 50.5302 29.6801 42.3256C35.2686 34.1209 40.4672 27.7395 45.146 23.1814C49.8247 18.6233 54.7634 14.4558 59.8321 10.8093C65.0307 7.16279 68.5397 4.94883 70.3593 4.0372C72.1788 3.12558 73.6084 2.34419 74.6481 1.95349L75.4279 0L72.8286 0.911624Z" fill="white"/>
<path d="M66.9192 110.698C77.8363 110.698 88.4935 106.66 98.7608 98.7163C109.158 90.7721 117.216 79.5721 123.064 65.1163C135.021 35.1628 124.624 19.5349 103.699 19.5349H80.9555L79.9158 22.1395H80.5656C87.4538 22.1395 88.3635 24.2233 85.6342 30.6047L57.8217 99.6279C55.2223 106.4 52.883 108.093 45.9948 108.093H45.345L44.3053 110.698H66.9192ZM102.4 22.7907C112.407 22.7907 118.645 28 119.555 40.6326C119.945 46.8837 118.126 55.0884 113.967 65.1163C108.248 79.3116 101.23 89.9907 92.7823 97.0232C84.4646 103.926 76.2767 107.442 68.2189 107.442C63.6701 107.442 63.0203 105.488 65.4896 99.6279L93.4322 30.6047C95.9015 24.7442 97.851 22.7907 102.4 22.7907Z" fill="white"/>
<path d="M181.618 87.386L180.578 89.9907C178.629 94.9395 175.249 99.3674 170.441 103.405C165.762 107.442 160.303 109.395 154.065 109.395C144.708 109.395 139.119 102.102 139.119 91.814C139.119 88.9488 139.379 86.4744 139.769 84.5209C145.357 84 150.296 83.4791 159.524 81.2651C164.202 80.093 168.231 78.7907 171.74 77.2279C178.629 74.1023 184.607 68.1116 184.607 61.2093C184.607 53.786 179.538 48.8372 170.311 48.8372C163.683 48.8372 157.444 51.0512 151.336 55.4791C145.227 59.907 140.549 65.2465 137.04 71.6279C133.661 77.8791 131.971 84 131.971 89.8605C131.971 103.926 139.379 112.651 153.415 112.651C160.303 112.651 166.412 110.437 171.74 106.14C177.069 101.842 180.968 96.7628 183.177 91.0326L184.217 88.4279L181.618 87.386ZM169.661 52.093C177.329 52.093 180.708 56 180.708 61.2093C180.708 68.3721 173.82 73.9721 163.942 76.9674C154.195 79.9628 147.177 81.1349 140.289 81.786C142.238 73.5814 146.137 66.6791 151.726 60.8186C157.314 54.9581 163.293 52.093 169.661 52.093Z" fill="white"/>
<path d="M252.128 63.1628C252.128 55.4791 245.76 48.8372 235.882 48.8372C230.034 48.8372 225.225 50.5302 221.456 54.0465C217.687 57.5628 215.738 61.8605 215.738 67.0698C215.738 81.2651 236.532 85.1721 236.532 97.0232C236.532 104.967 229.514 109.395 221.586 109.395C214.438 109.395 208.59 105.619 208.59 101.581C208.59 99.6279 209.499 97.9349 211.449 96.3721C213.398 94.8093 214.438 93.1163 214.438 91.1628C214.438 88.5581 212.489 86.6046 209.889 86.6046C206.25 86.6046 202.741 90.3814 202.741 97.0232C202.741 101.06 204.301 104.707 207.55 107.963C210.799 111.088 215.478 112.651 221.586 112.651C227.435 112.651 232.243 110.958 236.272 107.442C240.301 103.926 242.381 99.6279 242.381 94.4186C242.381 80.093 221.586 76.8372 221.586 64.4651C221.586 57.3023 227.954 52.093 235.882 52.093C241.471 52.093 246.28 55.3488 246.28 58.6047C246.28 59.7767 245.5 61.2093 243.94 62.6419C242.511 64.0744 241.731 65.507 241.731 67.0698C241.731 69.6744 243.68 71.6279 246.28 71.6279C249.399 71.6279 252.128 69.0233 252.128 63.1628Z" fill="white"/>
<path d="M307.562 46.8837C303.923 49.4884 297.815 50.7907 289.107 50.7907H277.41V53.3953H293.656C299.375 53.3953 299.634 54.0465 297.165 59.2558L287.938 82.1767C284.428 90.2512 282.739 96.1116 282.739 99.8884C282.739 108.744 289.237 112.651 295.606 112.651C303.923 112.651 311.851 105.488 319.519 91.293L320.949 88.6884L318.609 87.386L317.18 89.9907C310.292 102.884 303.533 109.395 296.905 109.395C292.356 109.395 288.717 106.791 288.717 100.93C288.717 98.7163 290.407 93.507 293.916 85.0419L309.512 46.8837H307.562ZM306.523 33.3395C309.122 35.8139 313.281 35.8139 315.75 33.3395C318.349 30.7349 318.349 26.5674 315.75 24.093C313.281 21.4884 309.122 21.4884 306.523 24.093C304.053 26.5674 304.053 30.7349 306.523 33.3395Z" fill="white"/>
<path d="M378.592 48.8372C373.394 48.8372 367.935 50.9209 362.087 55.2186C356.238 59.5163 351.3 65.2465 347.141 72.6698C343.112 79.9628 341.032 87.386 341.032 95.0698C341.032 106.921 347.141 112.651 356.108 112.651C362.087 112.651 367.805 109.265 373.264 102.363H373.914L370.535 110.698C362.867 129.321 356.498 136.744 346.231 136.744C339.473 136.744 336.484 132.577 336.484 129.581C336.484 126.456 344.282 126.195 344.282 120.465C344.282 117.991 342.592 116.558 339.993 116.558C336.224 116.558 331.935 120.335 331.935 126.977C331.935 133.619 337.393 140 346.881 140C359.488 140 369.625 130.233 377.423 110.698L402.116 49.4884H399.647L391.199 64.4651H390.549C391.199 60.2977 390.549 56.6512 388.73 53.5256C387.04 50.4 383.661 48.8372 378.592 48.8372ZM381.842 82.0465C374.564 100.279 366.506 109.395 357.538 109.395C351.43 109.395 347.921 104.577 347.921 95.7209C347.921 84.1302 351.43 73.9721 358.318 65.2465C365.206 56.5209 372.224 52.093 379.242 52.093C389.38 52.093 389.25 63.9442 386.13 71.3674L381.842 82.0465Z" fill="white"/>
<path d="M465.738 87.386L464.569 90.2512C463.269 93.507 462.229 95.8512 461.449 97.5442C460.8 99.2372 459.76 101.06 458.59 103.274C456.381 107.572 454.301 109.395 452.092 109.395C449.493 109.395 448.193 107.702 448.193 104.186C448.193 100.93 450.532 94.1581 455.341 83.6093C460.15 73.0605 462.489 65.3767 462.489 60.5581C462.489 53.1349 457.68 48.8372 451.442 48.8372C445.074 48.8372 439.355 53.1349 434.547 61.8605H433.897C435.196 57.3023 435.196 48.8372 427.399 48.8372C420.64 48.8372 415.832 54.6977 409.463 70.4558L407.254 75.7953L409.853 76.8372L412.063 71.4977C417.391 58.6046 422.07 52.093 426.099 52.093C428.698 52.093 429.998 53.6558 429.998 56.6512C429.998 58.4744 427.788 64.7256 423.5 75.2744L409.203 110.698H416.352L429.088 79.4419C429.348 78.7907 429.738 78.0093 430.128 76.8372C432.857 69.9349 434.547 66.2884 437.666 60.9488C440.915 55.6093 444.944 52.7442 449.493 52.7442C453.522 52.7442 455.991 55.3488 455.991 59.907C455.991 63.5535 453.652 70.7163 448.843 81.5256C444.034 92.2046 441.695 99.4977 441.695 103.535C441.695 109.265 445.594 112.651 450.792 112.651C455.601 112 458.59 109.916 461.579 103.795L464.309 98.3256L467.168 91.293L468.338 88.4279L465.738 87.386Z" fill="white"/>
<path d="M613.127 22.1395L611.698 20.9674C609.748 19.4046 605.069 17.5814 600.001 17.5814C592.073 17.5814 585.185 20.186 579.336 25.2651C573.488 30.3442 570.629 36.8558 570.629 45.0605C570.629 51.9628 575.697 60.1674 580.506 65.507C585.575 70.8465 590.513 79.0512 590.513 86.2139C590.513 92.986 588.434 98.586 584.405 102.884C580.376 107.181 575.177 109.395 568.939 109.395C558.412 109.395 553.993 102.102 553.993 93.3767C553.993 89.9907 554.383 86.6046 555.033 83.3488H552.303L542.296 110.698L551.264 105.488L552.953 107.312C555.033 109.786 561.141 112.651 568.289 112.651C577.387 112.651 584.665 109.786 590.253 104.186C595.842 98.586 598.701 91.4233 598.701 82.6977C598.701 74.8837 593.762 66.2884 588.694 60.9488C583.885 55.3488 578.816 47.7953 578.816 41.5442C578.816 28 587.394 20.8372 598.701 20.8372C605.849 20.8372 610.268 25.6558 611.438 30.4744C612.087 32.8186 612.477 35.4233 612.477 38.2884C612.477 41.2837 612.217 43.8884 611.828 46.2326L614.687 45.5814L620.925 18.2326L613.127 22.1395Z" fill="white"/>
<path d="M661.284 27.3488L654.655 39.0698C651.796 44.1488 649.327 47.2744 647.247 48.707C645.168 50.1395 641.659 50.7907 636.85 50.7907H626.063V54.0465H645.298L635.94 76.8372C632.821 84.2605 631.261 90.6419 631.261 95.9814C631.261 105.879 638.15 112.651 647.507 112.651C655.955 112.651 663.363 106.009 671.291 91.293L674.15 85.9535L671.811 84.6512L668.951 89.9907C662.063 102.884 655.435 109.395 648.807 109.395C643.088 109.395 637.76 104.837 637.76 97.0232C637.76 92.986 639.189 87.2558 642.179 79.7023L652.446 54.0465H677.399V50.7907H653.745L663.233 27.3488H661.284Z" fill="white"/>
<path d="M691.634 76.8372L693.974 71.2372L696.963 63.9442L699.822 58.214C702.292 53.9163 704.241 52.093 706.451 52.093C708.66 52.093 709.7 53.3953 709.7 56C709.7 58.8651 708.27 63.1628 705.541 68.7628C702.811 74.3628 700.212 80.093 697.483 86.2139C694.754 92.2046 693.454 97.1535 693.454 100.93C693.454 108.353 698.523 112.651 705.151 112.651C712.299 112.651 717.498 107.963 722.696 99.6279H723.346C722.046 104.186 722.046 112.651 729.844 112.651C736.603 112.651 741.411 106.791 747.779 91.0326L748.819 88.4279L746.22 87.386L745.18 89.9907C739.852 102.884 735.173 109.395 731.144 109.395C728.545 109.395 727.245 107.833 727.245 104.837C727.245 103.014 729.454 96.7628 733.743 86.2139L748.039 50.7907H740.891L728.155 82.0465C728.025 82.1767 727.895 82.5674 727.765 82.9581L724.776 90.1209L721.527 96.6326C719.967 99.6279 718.537 101.712 717.368 103.144C714.898 105.749 710.869 108.744 707.1 108.744C703.071 108.744 699.952 105.879 699.952 101.581C699.952 97.9349 702.682 90.5116 708.01 79.4419C713.469 68.2419 716.198 60.6884 716.198 56.6512C716.198 51.5721 712.949 48.8372 707.75 48.8372C704.761 48.8372 701.902 50.7907 699.952 52.8744C699.042 53.786 698.003 55.4791 696.833 57.693C695.663 59.907 694.884 61.8605 694.234 63.293L691.375 70.1953L689.035 75.7953L691.634 76.8372Z" fill="white"/>
<path d="M759.156 97.0232C759.156 107.442 765.004 112.651 772.802 112.651C779.69 112.651 786.838 107.702 794.116 97.6744H794.766C793.206 101.191 792.947 104.577 794.116 107.833C795.286 111.088 797.625 112.651 801.264 112.651C808.023 112.651 812.831 106.791 819.2 91.0326L820.239 88.4279L817.64 87.386L816.6 89.9907C811.272 102.884 806.593 109.395 802.564 109.395C799.965 109.395 798.665 107.833 798.665 104.837C798.665 103.014 800.874 96.7628 805.163 86.2139L833.496 15.6279H831.546C827.907 18.2326 821.799 19.5349 813.091 19.5349H804.254V22.1395H817.9C823.618 22.1395 823.878 22.7907 821.409 28L807.243 63.1628C808.412 55.2186 805.293 48.8372 796.845 48.8372C791.647 48.8372 786.058 51.1814 780.21 55.7395C774.361 60.2977 769.423 66.4186 765.264 74.1023C761.235 81.786 759.156 89.3395 759.156 97.0232ZM799.575 82.0465C797.365 87.6465 793.986 93.507 789.437 99.3674C785.149 105.228 779.3 109.395 774.102 109.395C769.423 109.395 766.304 105.228 766.304 98.3256C766.304 86.9953 770.852 74.7535 776.961 66.4186C783.199 57.9535 791.127 52.093 797.495 52.093C806.463 52.093 806.853 63.9442 803.864 71.3674L799.575 82.0465Z" fill="white"/>
<path d="M868.525 46.8837C864.886 49.4884 858.778 50.7907 850.07 50.7907H838.374V53.3953H854.619C860.338 53.3953 860.598 54.0465 858.128 59.2558L848.901 82.1767C845.392 90.2512 843.702 96.1116 843.702 99.8884C843.702 108.744 850.2 112.651 856.569 112.651C864.886 112.651 872.814 105.488 880.482 91.293L881.912 88.6884L879.573 87.386L878.143 89.9907C871.255 102.884 864.497 109.395 857.868 109.395C853.32 109.395 849.68 106.791 849.68 100.93C849.68 98.7163 851.37 93.507 854.879 85.0419L870.475 46.8837H868.525ZM867.486 33.3395C870.085 35.8139 874.244 35.8139 876.713 33.3395C879.313 30.7349 879.313 26.5674 876.713 24.093C874.244 21.4884 870.085 21.4884 867.486 24.093C865.016 26.5674 865.016 30.7349 867.486 33.3395Z" fill="white"/>
<path d="M937.736 48.8372C931.758 48.8372 925.909 51.0512 920.191 55.4791C914.472 59.907 909.923 65.507 906.414 72.1488C903.035 78.7907 901.346 85.3023 901.346 91.6837C901.346 98.0651 903.035 103.274 906.414 107.051C909.923 110.828 914.602 112.651 920.711 112.651C926.819 112.651 932.667 110.437 938.386 106.009C944.104 101.581 948.653 96.1116 952.032 89.4698C955.541 82.8279 957.231 76.3163 957.231 69.9349C957.231 57.0419 950.083 48.8372 937.736 48.8372ZM936.826 52.093C944.624 52.093 950.083 58.4744 950.083 68.5023C950.083 73.8419 948.913 79.5721 946.574 85.693C944.364 91.8139 940.855 97.414 936.306 102.233C931.758 107.051 926.949 109.395 921.62 109.395C913.822 109.395 908.494 103.144 908.494 93.1163C908.494 82.5674 913.043 68.893 922.01 59.386C926.559 54.5674 931.498 52.093 936.826 52.093Z" fill="white"/>
<path d="M1003.83 2.86511C1006.17 5.46977 1011.76 10.2884 1014.09 21.0977C1015.78 28.3907 1016.3 36.5954 1013.58 49.0977C1012.28 55.3488 1010.2 61.9907 1007.47 69.0233C1003.57 78.6605 998.759 87.5163 993.17 95.7209C987.582 103.926 982.513 110.307 977.834 114.865C973.156 119.423 968.217 123.591 963.148 127.237C957.95 130.884 954.441 133.098 952.621 134.009C950.802 134.921 949.372 135.702 948.332 136.093L947.553 138.047L950.152 137.135C955.351 134.791 966.657 130.102 979.524 119.033C988.362 111.609 996.68 103.144 1004.87 90.1209C1009.03 83.4791 1012.67 76.4465 1015.65 69.0233C1021.5 54.0465 1023.71 40.3721 1022.8 31.386C1022.15 22.4 1018.51 14.1953 1015 9.89767C1011.76 5.6 1006.69 1.82326 1005.13 0.911624C1004.35 0.520931 1003.7 0.130231 1003.18 0L1002.4 1.95349L1003.83 2.86511Z" fill="white"/>
</svg>
