<svg viewBox="0 0 1347 124" fill="none" xmlns="http://www.w3.org/2000/svg">
<path d="M0 3.89528L1.0399 6.49215C8.18919 6.49215 11.6988 10.6471 14.6885 17.5288L40.166 81.1518C43.2857 86.9948 42.7658 92.1885 35.6165 92.1885L36.6564 94.7853H58.1043L57.0644 92.1885C50.955 92.1885 46.4054 88.5529 43.4157 81.1518L17.0283 15.5812L64.6036 94.7853H67.2034L52.9048 17.5288L79.6821 83.7487C82.4119 90.111 81.502 92.1885 74.6126 92.1885L75.6525 94.7853H99.7001L98.6602 92.1885C91.7709 92.1885 89.4312 90.5005 86.8314 83.7487L58.8842 14.9319C56.1545 8.56963 57.0644 6.49215 63.9537 6.49215L62.9138 3.89528H47.0554L60.0541 74.6597L17.6783 3.89528H0Z" fill="white"/>
<path d="M161.643 93.4869C157.873 93.4869 153.844 87.3843 147.994 72.9717L132.006 33.7592H129.406L134.736 52.1969L134.216 52.4565C127.976 39.6021 120.437 33.1099 111.598 33.1099C103.279 33.1099 97.9494 40.1215 97.9494 52.5864C97.9494 58.689 99.5092 65.1812 102.499 72.0628C105.489 78.8147 109.648 84.6576 114.978 89.4618C120.307 94.266 125.897 96.733 131.746 96.733C141.235 96.733 144.225 89.2021 143.315 80.3728L143.705 80.2429C149.294 91.1497 154.234 96.733 160.473 96.733C164.243 96.733 166.193 93.7466 166.193 87.644C166.193 84.1382 165.023 79.334 162.813 73.4911L162.033 71.5435L159.433 72.712L160.213 74.6597C162.423 79.9832 163.593 84.5277 163.593 88.2932C163.593 91.799 162.943 93.4869 161.643 93.4869ZM139.675 70.8942C142.925 78.1654 142.145 92.9675 132.916 92.8377C118.877 93.4869 104.449 67.6482 104.969 50.1194C104.969 40.9005 107.698 36.356 113.158 36.356C117.317 36.356 121.477 39.0827 125.767 44.4063C130.056 49.7298 133.436 55.1832 135.776 61.0262L139.675 70.8942Z" fill="white"/>
<path d="M189.659 73.8806C184.98 62.5843 182.64 54.0147 182.64 48.1717C182.64 40.7707 184.72 37.0052 188.749 37.0052C191.349 37.0052 193.429 38.4335 195.249 40.511C196.419 41.5497 197.979 44.4063 198.628 45.8346C199.538 47.0031 201.228 51.0283 201.748 52.4565L203.178 56.222L204.608 59.7277L210.847 75.4387C216.697 90.3707 221.376 96.733 228.266 96.733C232.815 96.733 235.935 93.0974 235.935 86.3456C235.935 83.6189 234.765 79.334 232.555 73.4911L231.775 71.5435L229.175 72.712L229.955 74.6597C232.165 79.9832 233.335 84.1382 233.335 86.9948C233.335 91.0199 231.385 93.4869 228.786 93.4869C227.486 93.4869 226.316 92.7078 225.276 91.2796C223.846 89.5916 221.116 83.489 217.087 72.9717L210.717 57.1309C207.988 49.8597 206.298 45.9644 202.788 40.9005C199.538 35.7068 195.509 33.1099 190.439 33.1099C183.81 33.1099 180.04 39.4722 180.04 46.7435C180.04 50.5089 180.56 54.0147 181.47 57.5204L180.95 57.9099L180.43 56.6115C177.181 48.8209 175.361 44.7958 172.631 39.9916C170.031 35.1874 167.302 33.1099 164.312 33.1099C159.242 33.1099 156.643 36.6157 156.643 43.4974C156.643 47.5225 158.462 54.1445 162.102 63.3634L164.182 68.6869L166.782 67.5183L164.702 62.1948C161.062 52.9759 159.242 46.6136 159.242 42.8482C159.242 38.5633 160.542 36.356 163.142 36.356C164.312 36.356 165.482 37.0052 166.652 38.4335C168.081 40.2513 171.071 46.3539 175.491 56.8712L191.089 94.7853H198.239L189.659 73.8806Z" fill="white"/>
<path d="M299.568 93.4869C298.398 93.4869 297.228 92.8377 296.058 91.4094C294.628 89.5916 291.638 83.489 287.219 72.9717L271.62 35.0576H264.471L273.05 55.9623L274.22 58.8188C274.87 60.5068 275.39 61.5455 275.52 62.0649C276.04 63.1037 277.6 67.1288 278.12 68.6869C278.64 70.1152 279.55 73.2314 279.94 75.1791C280.33 76.867 280.719 79.334 280.719 81.022C280.719 86.8649 278.51 92.8377 273.96 92.8377C271.36 92.8377 269.411 91.2796 267.331 89.4618C266.291 88.2932 264.861 85.3068 263.951 84.1382C263.301 82.7099 261.481 78.8147 260.961 77.3864L259.532 73.7508L258.102 70.1152L251.862 54.4042C246.273 40.2513 240.683 33.1099 235.094 33.1099C230.024 33.1099 227.425 36.6157 227.425 43.4974C227.425 47.5225 229.245 54.1445 232.884 63.3634L234.964 68.6869L237.564 67.5183L235.484 62.1948C231.844 52.9759 230.024 46.6136 230.024 42.8482C230.024 38.5633 231.324 36.356 233.924 36.356C235.224 36.4859 236.524 37.3948 237.824 39.0827C238.864 40.6408 241.463 46.6136 245.623 56.8712L251.992 72.712L255.762 81.801C256.802 83.8785 258.232 86.2157 259.921 88.9424C263.431 94.266 267.201 96.733 272.27 96.733C276.04 96.733 278.77 95.1749 280.459 92.0586C282.149 88.8126 283.059 85.3068 283.059 81.2817L283.449 81.1518C287.089 89.8513 291.378 94.7853 293.978 95.8241C295.408 96.4733 296.838 96.733 298.398 96.733C303.467 96.733 306.717 93.2272 306.717 86.3456C306.717 83.6189 305.547 79.334 303.337 73.4911L302.557 71.5435L299.958 72.712L300.737 74.6597C302.947 79.9832 304.117 84.1382 304.117 86.9948C304.117 91.0199 302.167 93.4869 299.568 93.4869Z" fill="white"/>
<path d="M372.039 93.4869C368.27 93.4869 364.24 87.3843 358.391 72.9717L342.402 33.7592H339.803L345.132 52.1969L344.612 52.4565C338.373 39.6021 330.834 33.1099 321.994 33.1099C313.675 33.1099 308.346 40.1215 308.346 52.5864C308.346 58.689 309.906 65.1812 312.895 72.0628C315.885 78.8147 320.045 84.6576 325.374 89.4618C330.704 94.266 336.293 96.733 342.142 96.733C351.631 96.733 354.621 89.2021 353.711 80.3728L354.101 80.2429C359.691 91.1497 364.63 96.733 370.87 96.733C374.639 96.733 376.589 93.7466 376.589 87.644C376.589 84.1382 375.419 79.334 373.209 73.4911L372.429 71.5435L369.83 72.712L370.61 74.6597C372.819 79.9832 373.989 84.5277 373.989 88.2932C373.989 91.799 373.339 93.4869 372.039 93.4869ZM350.072 70.8942C353.321 78.1654 352.541 92.9675 343.312 92.8377C329.274 93.4869 314.845 67.6482 315.365 50.1194C315.365 40.9005 318.095 36.356 323.554 36.356C327.714 36.356 331.873 39.0827 336.163 44.4063C340.453 49.7298 343.832 55.1832 346.172 61.0262L350.072 70.8942Z" fill="white"/>
<path d="M374.838 0C373.278 2.59686 368.209 3.89528 359.5 3.89528H349.491V6.49215H365.739C368.599 6.49215 370.419 6.75183 371.199 7.40104C371.979 8.05026 372.888 9.60838 373.928 12.3351L394.986 63.4932C399.796 75.1791 404.345 83.6188 408.375 88.9424C412.405 94.1361 417.344 96.733 423.064 96.733C430.213 96.733 433.982 90.111 433.982 81.1518C433.982 77.2565 433.202 73.3613 431.773 69.5958L429.693 64.9215L427.093 66.09L429.173 70.7644C430.603 74.2702 431.383 77.9058 431.383 81.801C431.383 88.0335 429.043 93.4869 424.233 93.4869C420.464 93.4869 416.824 91.1497 413.444 86.6052C410.195 81.9309 406.035 73.3613 401.226 61.0262L376.138 0H374.838Z" fill="white"/>
<path d="M579.056 74.0105L576.196 73.3613C577.626 86.2157 573.337 91.5393 563.458 91.5393H555.009C548.119 91.5393 545.909 89.8513 543.44 83.7487L529.791 49.9895H537.59C545 49.9895 549.809 52.9759 552.279 59.0785L552.539 59.7277H555.139L545.909 37.0052H543.31L543.57 37.6544C546.299 44.7958 543.05 46.7435 536.16 46.7435H528.361L515.492 14.9319C512.893 9.089 513.933 7.14136 520.822 7.14136H526.021C537.07 7.14136 546.949 13.244 555.529 25.3194L557.868 24.6702L544.61 3.89528H494.305L495.344 6.49215H495.994C502.884 6.49215 505.224 8.1801 507.823 14.9319L535.641 83.7487C538.37 90.111 537.46 92.1885 530.571 92.1885H529.921L530.961 94.7853H582.696L579.056 74.0105Z" fill="white"/>
<path d="M610.452 73.8806C605.773 62.5843 603.433 54.0147 603.433 48.1717C603.433 40.7707 605.513 37.0052 609.542 37.0052C612.142 37.0052 614.222 38.4335 616.042 40.511C617.211 41.5497 618.771 44.4063 619.421 45.8346C620.331 47.0031 622.021 51.0283 622.541 52.4565L623.971 56.222L625.401 59.7277L631.64 75.4387C637.489 90.3707 642.169 96.733 649.058 96.733C653.608 96.733 656.728 93.0974 656.728 86.3456C656.728 83.6189 655.558 79.334 653.348 73.4911L652.568 71.5435L649.968 72.712L650.748 74.6597C652.958 79.9832 654.128 84.1382 654.128 86.9948C654.128 91.0199 652.178 93.4869 649.578 93.4869C648.278 93.4869 647.109 92.7078 646.069 91.2796C644.639 89.5916 641.909 83.489 637.879 72.9717L631.51 57.1309C628.78 49.8597 627.09 45.9644 623.581 40.9005C620.331 35.7068 616.302 33.1099 611.232 33.1099C604.603 33.1099 600.833 39.4722 600.833 46.7435C600.833 50.5089 601.353 54.0147 602.263 57.5204L601.743 57.9099L601.223 56.6115C597.973 48.8209 596.154 44.7958 593.424 39.9916C590.824 35.1874 588.094 33.1099 585.105 33.1099C580.035 33.1099 577.435 36.6157 577.435 43.4974C577.435 47.5225 579.255 54.1445 582.895 63.3634L584.975 68.6869L587.574 67.5183L585.495 62.1948C581.855 52.9759 580.035 46.6136 580.035 42.8482C580.035 38.5633 581.335 36.356 583.935 36.356C585.105 36.356 586.275 37.0052 587.444 38.4335C588.874 40.2513 591.864 46.3539 596.284 56.8712L611.882 94.7853H619.031L610.452 73.8806Z" fill="white"/>
<path d="M712.691 94.7853C715.421 101.537 716.851 106.341 716.851 109.328C716.851 116.209 711.651 120.754 704.372 120.754C696.053 120.754 690.333 116.209 690.333 112.574C690.333 112.184 690.983 111.275 692.413 109.847C693.843 108.419 694.493 107.12 694.493 105.822C694.493 102.706 692.673 100.628 689.553 100.628C686.434 100.628 684.094 103.615 684.094 107.899C684.094 111.665 685.914 115.301 689.683 118.806C693.453 122.312 698.653 124 705.022 124C715.031 124 722.31 117.768 722.31 108.419C722.31 103.485 720.36 96.3435 716.591 86.8649L695.013 33.7592H692.413L697.743 52.1969L697.223 52.4565C695.663 49.3403 694.493 47.133 690.463 41.9393C686.434 36.6157 680.324 33.1099 673.955 33.1099C665.636 33.1099 660.566 40.1215 660.566 52.5864C660.566 58.9487 661.996 65.5707 664.986 72.4524C667.976 79.2042 672.135 84.9173 677.465 89.7215C682.794 94.3958 688.254 96.733 694.103 96.733C702.942 96.733 706.452 89.2021 706.322 80.3728L706.712 80.2429L712.691 94.7853ZM702.682 70.8942C704.242 76.4775 705.152 83.489 701.902 88.8126C700.342 91.5393 698.133 92.8377 695.143 92.8377C690.593 92.8377 686.044 90.5005 681.624 85.956C677.335 81.4115 673.825 75.8283 671.355 69.2063C668.885 62.5843 667.586 56.222 667.586 50.1194C667.586 40.1215 671.355 36.356 675.515 36.356C683.444 36.356 692.673 45.8346 698.783 61.0262L702.682 70.8942Z" fill="white"/>
<path d="M714.19 35.0576V37.6544H731.218C734.078 37.6544 735.898 37.9141 736.548 38.5633C737.328 39.2126 738.238 40.7707 739.408 43.4974L747.597 63.3634C752.536 75.1791 756.956 83.6188 760.985 88.9424C765.015 94.1361 769.955 96.733 775.674 96.733C782.823 96.733 786.593 90.111 786.593 81.1518C786.593 77.2565 785.813 73.3613 784.383 69.5958L782.303 64.9215L779.704 66.09L781.783 70.7644C783.213 74.2702 783.993 77.9058 783.993 81.801C783.993 88.0335 781.653 93.4869 776.844 93.4869C773.074 93.4869 769.565 91.1497 766.055 86.4754C762.675 81.801 758.646 73.3613 753.836 61.0262L741.617 31.1623H740.317C738.758 33.7592 733.688 35.0576 724.979 35.0576H714.19ZM726.019 17.6586C728.619 20.1256 732.778 20.1256 735.248 17.6586C737.848 15.0618 737.848 10.9068 735.248 8.43979C732.778 5.84293 728.619 5.84293 726.019 8.43979C723.549 10.9068 723.549 15.0618 726.019 17.6586Z" fill="white"/>
<path d="M820.849 73.8806C816.169 62.5843 813.829 54.0147 813.829 48.1717C813.829 40.7707 815.909 37.0052 819.939 37.0052C822.538 37.0052 824.618 38.4335 826.438 40.511C827.608 41.5497 829.168 44.4063 829.818 45.8346C830.728 47.0031 832.417 51.0283 832.937 52.4565L834.367 56.222L835.797 59.7277L842.036 75.4387C847.886 90.3707 852.565 96.733 859.455 96.733C864.004 96.733 867.124 93.0974 867.124 86.3456C867.124 83.6189 865.954 79.334 863.744 73.4911L862.964 71.5435L860.365 72.712L861.145 74.6597C863.354 79.9832 864.524 84.1382 864.524 86.9948C864.524 91.0199 862.574 93.4869 859.975 93.4869C858.675 93.4869 857.505 92.7078 856.465 91.2796C855.035 89.5916 852.305 83.489 848.276 72.9717L841.906 57.1309C839.177 49.8597 837.487 45.9644 833.977 40.9005C830.728 35.7068 826.698 33.1099 821.628 33.1099C814.999 33.1099 811.229 39.4722 811.229 46.7435C811.229 50.5089 811.749 54.0147 812.659 57.5204L812.139 57.9099L811.619 56.6115C808.37 48.8209 806.55 44.7958 803.82 39.9916C801.22 35.1874 798.491 33.1099 795.501 33.1099C790.431 33.1099 787.832 36.6157 787.832 43.4974C787.832 47.5225 789.652 54.1445 793.291 63.3634L795.371 68.6869L797.971 67.5183L795.891 62.1948C792.251 52.9759 790.432 46.6136 790.432 42.8482C790.432 38.5633 791.731 36.356 794.331 36.356C795.501 36.356 796.671 37.0052 797.841 38.4335C799.271 40.2513 802.26 46.3539 806.68 56.8712L822.278 94.7853H829.428L820.849 73.8806Z" fill="white"/>
<path d="M909.829 48.0419C909.829 39.3424 903.719 33.1099 892.281 33.1099C880.712 33.1099 872.912 40.9005 872.912 55.9623C872.912 73.8806 886.821 96.733 909.699 96.733C915.808 96.733 920.098 94.9152 922.568 91.1497C925.037 87.3843 926.337 82.9696 926.337 77.9058C926.207 74.0105 925.557 70.3749 924.127 67.1288L923.347 65.0513L921.268 65.8304L921.788 67.1288C923.347 71.0241 924.127 74.6597 924.127 77.9058C924.127 81.4115 923.607 84.2681 921.658 87.7738C919.968 91.2796 916.068 93.4869 910.479 93.4869C904.369 93.4869 898.65 91.0199 893.58 86.0859C888.511 81.1518 884.741 75.1791 882.272 68.0377C887.861 66.8691 892.93 65.311 899.17 62.1948C905.539 59.0785 909.829 53.8848 909.829 48.0419ZM892.93 36.356C900.34 36.356 906.059 40.3811 906.059 48.0419C906.059 53.2356 902.29 57.7801 896.57 60.5068C890.851 63.1037 886.301 64.5319 881.492 65.5707C880.452 61.8052 879.932 58.1696 879.932 54.4042C879.932 42.3288 884.221 36.356 892.93 36.356Z" fill="white"/>
<path d="M979.961 48.0419C979.961 39.3424 973.852 33.1099 962.413 33.1099C950.844 33.1099 943.045 40.9005 943.045 55.9623C943.045 73.8806 956.953 96.733 979.831 96.733C985.94 96.733 990.23 94.9152 992.7 91.1497C995.169 87.3843 996.469 82.9696 996.469 77.9058C996.339 74.0105 995.689 70.3749 994.26 67.1288L993.48 65.0513L991.4 65.8304L991.92 67.1288C993.48 71.0241 994.26 74.6597 994.26 77.9058C994.26 81.4115 993.74 84.2681 991.79 87.7738C990.1 91.2796 986.2 93.4869 980.611 93.4869C974.501 93.4869 968.782 91.0199 963.712 86.0859C958.643 81.1518 954.873 75.1791 952.404 68.0377C957.993 66.8691 963.063 65.311 969.302 62.1948C975.671 59.0785 979.961 53.8848 979.961 48.0419ZM963.063 36.356C970.472 36.356 976.191 40.3811 976.191 48.0419C976.191 53.2356 972.422 57.7801 966.702 60.5068C960.983 63.1037 956.433 64.5319 951.624 65.5707C950.584 61.8052 950.064 58.1696 950.064 54.4042C950.064 42.3288 954.353 36.356 963.063 36.356Z" fill="white"/>
<path d="M1039.04 73.8806C1029.69 51.288 1032.8 35.7068 1042.68 36.356C1048.01 36.356 1051.65 39.7319 1051.65 42.8482C1051.65 43.8869 1050.74 45.1853 1049.05 46.6136C1047.36 48.0419 1046.58 49.4702 1046.58 50.8984C1046.58 54.0147 1048.92 55.8325 1051.52 55.8325C1055.03 55.8325 1057.37 52.8461 1057.37 48.6911C1057.37 39.3424 1051.26 33.1099 1043.07 33.1099C1033.84 33.1099 1028.52 40.9005 1031.5 57.5204L1030.98 57.7801C1029.43 54.0147 1028.26 51.288 1027.48 49.7298C1026.83 48.0419 1025.79 45.9644 1024.36 43.2377C1022.93 40.511 1021.76 38.6932 1020.72 37.6544C1018.64 35.4471 1015.26 33.1099 1011.75 33.1099C1006.94 33.1099 1003.82 37.0052 1003.82 44.1466C1003.82 48.3016 1005.51 54.6639 1008.89 63.3634L1010.97 68.6869L1013.57 67.5183L1011.49 62.1948C1008.24 54.1445 1006.68 47.912 1006.68 43.4974C1006.68 38.6932 1007.98 36.356 1010.58 36.356C1013.05 36.356 1015.13 37.7843 1017.08 40.7707C1019.03 43.7571 1021.63 49.0806 1024.88 56.8712L1040.47 94.7853H1047.62L1039.04 73.8806Z" fill="white"/>
<path d="M1064.85 35.0576V37.6544H1081.88C1084.74 37.6544 1086.56 37.9141 1087.21 38.5633C1087.99 39.2126 1088.9 40.7707 1090.07 43.4974L1098.26 63.3634C1103.2 75.1791 1107.62 83.6188 1111.65 88.9424C1115.68 94.1361 1120.62 96.733 1126.33 96.733C1133.48 96.733 1137.25 90.111 1137.25 81.1518C1137.25 77.2565 1136.47 73.3613 1135.04 69.5958L1132.96 64.9215L1130.36 66.09L1132.44 70.7644C1133.87 74.2702 1134.65 77.9058 1134.65 81.801C1134.65 88.0335 1132.31 93.4869 1127.5 93.4869C1123.73 93.4869 1120.23 91.1497 1116.72 86.4754C1113.34 81.801 1109.31 73.3613 1104.5 61.0262L1092.28 31.1623H1090.98C1089.42 33.7592 1084.35 35.0576 1075.64 35.0576H1064.85ZM1076.68 17.6586C1079.28 20.1256 1083.44 20.1256 1085.91 17.6586C1088.51 15.0618 1088.51 10.9068 1085.91 8.43979C1083.44 5.84293 1079.28 5.84293 1076.68 8.43979C1074.21 10.9068 1074.21 15.0618 1076.68 17.6586Z" fill="white"/>
<path d="M1171.51 73.8806C1166.83 62.5843 1164.49 54.0147 1164.49 48.1717C1164.49 40.7707 1166.57 37.0052 1170.6 37.0052C1173.2 37.0052 1175.28 38.4335 1177.1 40.511C1178.27 41.5497 1179.83 44.4063 1180.48 45.8346C1181.39 47.0031 1183.08 51.0283 1183.6 52.4565L1185.03 56.222L1186.46 59.7277L1192.7 75.4387C1198.55 90.3707 1203.23 96.733 1210.12 96.733C1214.66 96.733 1217.78 93.0974 1217.78 86.3456C1217.78 83.6189 1216.61 79.334 1214.4 73.4911L1213.62 71.5435L1211.03 72.712L1211.81 74.6597C1214.01 79.9832 1215.18 84.1382 1215.18 86.9948C1215.18 91.0199 1213.23 93.4869 1210.64 93.4869C1209.34 93.4869 1208.17 92.7078 1207.13 91.2796C1205.7 89.5916 1202.97 83.489 1198.94 72.9717L1192.57 57.1309C1189.84 49.8597 1188.15 45.9644 1184.64 40.9005C1181.39 35.7068 1177.36 33.1099 1172.29 33.1099C1165.66 33.1099 1161.89 39.4722 1161.89 46.7435C1161.89 50.5089 1162.41 54.0147 1163.32 57.5204L1162.8 57.9099L1162.28 56.6115C1159.03 48.8209 1157.21 44.7958 1154.48 39.9916C1151.88 35.1874 1149.15 33.1099 1146.16 33.1099C1141.09 33.1099 1138.49 36.6157 1138.49 43.4974C1138.49 47.5225 1140.31 54.1445 1143.95 63.3634L1146.03 68.6869L1148.63 67.5183L1146.55 62.1948C1142.91 52.9759 1141.09 46.6136 1141.09 42.8482C1141.09 38.5633 1142.39 36.356 1144.99 36.356C1146.16 36.356 1147.33 37.0052 1148.5 38.4335C1149.93 40.2513 1152.92 46.3539 1157.34 56.8712L1172.94 94.7853H1180.09L1171.51 73.8806Z" fill="white"/>
<path d="M1273.75 94.7853C1276.48 101.537 1277.91 106.341 1277.91 109.328C1277.91 116.209 1272.71 120.754 1265.43 120.754C1257.11 120.754 1251.39 116.209 1251.39 112.574C1251.39 112.184 1252.04 111.275 1253.47 109.847C1254.9 108.419 1255.55 107.12 1255.55 105.822C1255.55 102.706 1253.73 100.628 1250.61 100.628C1247.49 100.628 1245.15 103.615 1245.15 107.899C1245.15 111.665 1246.97 115.301 1250.74 118.806C1254.51 122.312 1259.71 124 1266.08 124C1276.09 124 1283.37 117.768 1283.37 108.419C1283.37 103.485 1281.42 96.3435 1277.65 86.8649L1256.07 33.7592H1253.47L1258.8 52.1969L1258.28 52.4565C1256.72 49.3403 1255.55 47.133 1251.52 41.9393C1247.49 36.6157 1241.38 33.1099 1235.01 33.1099C1226.69 33.1099 1221.62 40.1215 1221.62 52.5864C1221.62 58.9487 1223.05 65.5707 1226.04 72.4524C1229.03 79.2042 1233.19 84.9173 1238.52 89.7215C1243.85 94.3958 1249.31 96.733 1255.16 96.733C1264 96.733 1267.51 89.2021 1267.38 80.3728L1267.77 80.2429L1273.75 94.7853ZM1263.74 70.8942C1265.3 76.4775 1266.21 83.489 1262.96 88.8126C1261.4 91.5393 1259.19 92.8377 1256.2 92.8377C1251.65 92.8377 1247.1 90.5005 1242.68 85.956C1238.39 81.4115 1234.88 75.8283 1232.41 69.2063C1229.94 62.5843 1228.64 56.222 1228.64 50.1194C1228.64 40.1215 1232.41 36.356 1236.57 36.356C1244.5 36.356 1253.73 45.8346 1259.84 61.0262L1263.74 70.8942Z" fill="white"/>
<path d="M1290.33 74.1403C1296.82 80.5026 1304.62 83.7487 1313.85 83.7487C1323.08 83.7487 1330.88 80.5026 1337.25 74.1403C1343.75 67.6482 1347 59.8576 1347 50.6387C1347 41.4199 1343.75 33.6293 1337.25 27.267C1330.88 20.7749 1323.08 17.5288 1313.85 17.5288C1304.62 17.5288 1296.82 20.7749 1290.33 27.267C1283.96 33.6293 1280.71 41.4199 1280.71 50.6387C1280.71 59.8576 1283.96 67.6482 1290.33 74.1403ZM1292.67 29.6042C1298.51 23.7612 1305.66 20.7749 1313.85 20.7749C1322.04 20.7749 1329.06 23.7612 1334.91 29.6042C1340.76 35.4471 1343.75 42.4586 1343.75 50.6387C1343.75 58.8188 1340.76 65.9602 1334.91 71.8031C1329.06 77.6461 1322.04 80.5026 1313.85 80.5026C1305.66 80.5026 1298.51 77.6461 1292.67 71.8031C1286.82 65.9602 1283.96 58.8188 1283.96 50.6387C1283.96 42.4586 1286.82 35.4471 1292.67 29.6042ZM1313.72 51.0283L1324.25 71.4136H1333.74V69.5958H1333.22C1330.75 69.5958 1328.54 67.6482 1326.46 63.7529L1319.7 50.5089C1326.46 48.9508 1330.1 45.1853 1330.1 40.511C1330.1 34.2785 1323.6 29.8639 1312.03 29.8639H1296.56V31.6817H1297.08C1301.11 31.6817 1302.02 32.8503 1302.02 37.5246V63.7529C1302.02 68.4272 1301.11 69.5958 1297.08 69.5958H1296.56V71.4136H1312.42V69.5958H1311.9C1307.87 69.5958 1306.96 68.4272 1306.96 63.7529V51.0283H1313.72ZM1312.03 32.201C1320.22 32.201 1324.25 34.9277 1324.25 40.511C1324.25 46.0942 1320.22 48.8209 1312.03 48.8209H1306.96V37.5246C1306.96 33.4995 1307.87 32.201 1310.99 32.201H1312.03Z" fill="white"/>
</svg>
